. 
 
http://www.torrenting.com          :     Once & For all ;)


               www . Torrenting . Com 

(((((((((((((= Enjoy No RAR releases =))))))))))))))))))))


...................................NFO:....................................

.








































          
          
              
              
                    
                    
                    
                    

Take.Shelter.LIMITED.2011.BRRiP.AC3-5.1.XviD-SiC

Poster:
[img]http://img213.imageshack.us/img213/4840/mv5bnzgzoda5mtu3mf5bml5.jpg[/img]

IMDB Link:
http://www.imdb.com/title/tt1675192/

Description:
Plagued by a series of apocalyptic visions, a young husband and father questions whether to shelter his family from a coming storm, or from himself.  

General
Complete name                            : Take.Shelter.2011.LIMITED.BRRiP.AC3-5.1.XviD-SiC.avi
Format                                   : AVI
Format/Info                              : Audio Video Interleave
File size                                : 1.37 GiB
Duration                                 : 2h 1mn
Overall bit rate                         : 1 619 Kbps

Video
ID                                       : 0
Format                                   : MPEG-4 Visual
Format profile                           : Advanced Simple@L5
Format settings, BVOP                    : 2
Format settings, QPel                    : No
Format settings, GMC                     : No warppoints
Format settings, Matrix                  : Default (H.263)
Muxing mode                              : Packed bitstream
Codec ID                                 : XVID
Codec ID/Hint                            : XviD
Duration                                 : 2h 1mn
Bit rate                                 : 1 227 Kbps
Width                                    : 720 pixels
Height                                   : 304 pixels
Display aspect ratio                     : 2.35:1
Frame rate                               : 23.976 fps
Color space                              : YUV
Chroma subsampling                       : 4:2:0
Bit depth                                : 8 bits
Scan type                                : Progressive
Compression mode                         : Lossy
Bits/(Pixel*Frame)                       : 0.234
Stream size                              : 1.04 GiB (76%)
Writing library                          : XviD 1.3.0.dev55

Audio
ID                                       : 1
Format                                   : AC-3
Format/Info                              : Audio Coding 3
Mode extension                           : CM (complete main)
Codec ID                                 : 2000
Duration                                 : 2h 1mn
Bit rate mode                            : Constant
Bit rate                                 : 384 Kbps
Channel(s)                               : 6 channels
Channel positions                        : Front: L C R, Side: L R, LFE
Sampling rate                            : 48.0 KHz
Bit depth                                : 16 bits
Compression mode                         : Lossy
Stream size                              : 333 MiB (24%)
Alignment                                : Aligned on interleaves
Interleave, duration                     : 64 ms (1.53 video frames)
Interleave, preload duration             : 192 ms
Title                                    : Take.Shelter.2011.LIMITED.720p.BluRay.X264-AMIABLE - [2] English


Screenshots:
[img]http://img585.imageshack.us/img585/7105/snap1wx.png[/img]
[img]http://img9.imageshack.us/img9/123/snap2iu.png[/img]
[img]http://img171.imageshack.us/img171/1557/snap3f.png[/img]
[img]http://img24.imageshack.us/img24/4601/snap4y.png[/img]
[img]http://img828.imageshack.us/img828/8163/snap5n.png[/img]


Note: Video was nice! Added contrast, saturation, denoised and sharpened. Took english DTS and encoded to AC3.

Source: 720p AMIABLE

Enjoy!

Respects to T00NG0D, ELEKTRI4KA, PA, YeFsTe, MrRep and everyone in the struggle...RiP MU